Coordinates
version=1
nRows=8
nColumns=40
inDegrees=yes

Units are S.I. units (second, meters, Newtons, ...)
Angles are in degrees.

endheader
time	pelvis_tilt	pelvis_list	pelvis_rotation	pelvis_tx	pelvis_ty	pelvis_tz	hip_flexion_r	hip_adduction_r	hip_rotation_r	knee_angle_r	knee_angle_r_beta	ankle_angle_r	subtalar_angle_r	mtp_angle_r	hip_flexion_l	hip_adduction_l	hip_rotation_l	knee_angle_l	knee_angle_l_beta	ankle_angle_l	subtalar_angle_l	mtp_angle_l	lumbar_extension	lumbar_bending	lumbar_rotation	arm_flex_r	arm_add_r	arm_rot_r	elbow_flex_r	pro_sup_r	wrist_flex_r	wrist_dev_r	arm_flex_l	arm_add_l	arm_rot_l	elbow_flex_l	pro_sup_l	wrist_flex_l	wrist_dev_l
     38.11500000	     -8.93179096	     -6.48107311	      3.27150963	      1.09910619	      0.90994193	      0.43307339	      7.19204203	     -0.92652053	    -11.62684129	     32.40567084	     32.40567084	     15.38173840	     -6.75035008	     -5.49781140	     34.28288556	     -7.12946737	      1.27988566	     30.87241648	     30.87241648	      9.46801523	    -12.50729418	      6.16899157	     -9.45294981	      4.46475082	      5.63444819	     48.51970771	    -11.14753044	      6.94115924	    121.21595058	     43.72051850	      0.00000000	      0.00000000	    -15.23215463	     -6.63290557	      3.77562676	     25.73406837	     44.77890348	      0.00000000	      0.00000000
     38.12657143	     -8.88201491	     -6.37127361	      3.08766038	      1.09866312	      0.91182117	      0.43104971	      8.65009825	     -1.46094768	    -11.24662211	     35.79279084	     35.79279084	     13.86327029	     -8.44767955	     -5.70122644	     33.35075893	     -7.01433441	      1.01462894	     30.44110633	     30.44110633	      9.94561433	    -12.44843883	      6.17863414	     -9.51524003	      4.29038245	      5.67643650	     46.75549209	    -11.20770968	      7.32826325	    120.80720790	     43.72035308	      0.00000000	      0.00000000	    -13.99959934	     -6.75883879	      3.74467784	     26.33967369	     44.81304329	      0.00000000	      0.00000000
     38.13814286	     -8.90076953	     -6.28454196	      2.89909722	      1.09804828	      0.91354178	      0.42921828	     10.30986702	     -1.91789649	    -10.80647959	     39.26413891	     39.26413891	     12.25065814	    -10.38076792	     -5.62991426	     32.46556151	     -6.91447458	      0.77303960	     29.91712824	     29.91712824	     10.31655323	    -12.42965902	      6.19602310	     -9.47532787	      4.13360291	      5.70579920	     44.89531536	    -11.38776837	      7.67853178	    120.09288317	     43.73093822	      0.00000000	      0.00000000	    -12.78162328	     -6.92995977	      3.65421246	     27.09445183	     44.85568872	      0.00000000	      0.00000000
     38.14971429	     -8.87239574	     -6.20609583	      2.70978562	      1.09734111	      0.91519557	      0.42751569	     11.98286824	     -2.34025526	    -10.40336889	     42.70277791	     42.70277791	     10.65209564	    -12.27974862	     -5.28334448	     31.54292082	     -6.82346820	      0.54455889	     29.39855086	     29.39855086	     10.64982692	    -12.43974076	      6.17769575	     -9.49022663	      3.98619218	      5.71696703	     42.95286976	    -11.53720822	      8.03799435	    119.09481256	     43.74885882	      0.00000000	      0.00000000	    -11.50573323	     -7.13842981	      3.51574093	     27.97213794	     44.90484667	      0.00000000	      0.00000000
     38.16128571	     -8.83958415	     -6.22790566	      2.51566597	      1.09648477	      0.91673701	      0.42596685	     13.74109149	     -2.51672372	     -9.80954074	     46.10214693	     46.10214693	      9.22667048	    -14.39707458	     -4.02955102	     30.65225115	     -6.80221992	      0.48073125	     28.89244576	     28.89244576	     10.85780814	    -12.63970408	      6.08295999	     -9.46036359	      4.00261588	      5.75764876	     41.02121526	    -11.83122131	      8.22953025	    117.36298727	     43.80913932	      0.00000000	      0.00000000	    -10.41919934	     -7.43118571	      3.13308493	     29.51665183	     44.99795289	      0.00000000	      0.00000000
     38.17285714	     -8.79017432	     -6.09507062	      2.34030170	      1.09555552	      0.91815627	      0.42434593	     15.50566750	     -3.00550543	     -9.52098283	     49.43363538	     49.43363538	      7.92270535	    -15.80904914	     -3.23745697	     29.72092582	     -6.65628128	      0.20199386	     28.36166509	     28.36166509	     11.09188462	    -12.60622961	      6.01461280	     -9.50205907	      3.84553718	      5.64317853	     38.99650142	    -11.92985027	      8.61598069	    115.86941793	     43.84288751	      0.00000000	      0.00000000	     -9.11662785	     -7.66886090	      2.90164542	     30.54987245	     45.06013630	      0.00000000	      0.00000000
     38.18442857	     -8.63115866	     -6.01030693	      2.19083699	      1.09455478	      0.91953813	      0.42279036	     17.15737175	     -3.41352180	     -9.24061105	     52.56899274	     52.56899274	      6.73800202	    -17.03599667	     -2.47654833	     28.77320262	     -6.54403497	      0.01841750	     27.99021406	     27.99021406	     11.36698353	    -12.65001614	      5.93321912	     -9.66702131	      3.77760686	      5.57401275	     36.93533251	    -12.02465777	      8.99560173	    114.20155143	     43.87891679	      0.00000000	      0.00000000	     -7.59499263	     -7.94687539	      2.68192309	     31.59552822	     45.11993726	      0.00000000	      0.00000000
     38.19600000	     -8.56536460	     -6.04454284	      1.98603781	      1.09337740	      0.92068991	      0.42140667	     19.12910000	     -3.53984794	     -8.72234970	     55.88833583	     55.88833583	      7.36312595	    -17.54205192	      3.13710893	     27.88053740	     -6.50325048	      0.06748690	     27.47510453	     27.47510453	     11.36047141	    -13.11272648	      5.49783942	     -9.62508566	      3.84956506	      4.93951941	     35.57556860	    -11.56052058	      8.99033876	    109.76632343	     44.05643589	      0.00000000	      0.00000000	     -7.24695969	     -8.29740068	      1.53020122	     34.59838254	     45.32258343	      0.00000000	      0.00000000
